<?xml version="1.0" encoding="UTF-8"?>
<svg id="Layer_1" xmlns="http://www.w3.org/2000/svg" version="1.1" viewBox="0 0 31.2 24">
  <!-- Generator: Adobe Illustrator 30.8.2, SVG Export Plug-In . SVG Version: 2.1.4 Build 7)  -->
  <defs>
    <style>
      .st0 {
        stroke-linejoin: round;
      }

      .st0, .st1, .st2 {
        fill: none;
        stroke: #8f8f94;
      }

      .st0, .st2 {
        stroke-width: 1.4px;
      }

      .st1 {
        stroke-miterlimit: 10;
        stroke-width: 1.4px;
      }

      .st2 {
        stroke-linecap: round;
      }
    </style>
  </defs>
  <path class="st0" d="M11.2,16.5l11.8-11.8c1.1-1.1,2.9-1.1,4,0,1.1,1.1,1.1,2.9,0,4l-11.8,11.8-5,.5,1-4.5Z"/>
  <path class="st2" d="M21,6.7l4,4"/>
  <path class="st1" d="M21,4.8h0c0-1.1-.9-2-2-2H6.1c-1.1,0-2,.9-2,2v14.2c0,1.1.9,2,2,2h2.4"/>
  <path class="st1" d="M21,6"/>
  <line class="st1" x1="7.1" y1="6.7" x2="17.6" y2="6.7"/>
  <line class="st1" x1="7.1" y1="10.1" x2="13.1" y2="10.1"/>
</svg>